Coordinates
version=1
nRows=21
nColumns=12
inDegrees=yes

Units are S.I. units (second, meters, Newtons, ...)
Angles are in degrees

endheader
time	SC_y	SC_z	SC_x	AC_y	AC_z	AC_x	GH_y	GH_z	GH_yy	EL_x	PS_y
       0.0               -21.8          32.64          54.52          45.57          4.489          7.183          69.66          63.49          100.2           96.0          112.0
   0.04346               -21.8          32.64          54.52          45.57          4.487          7.183          69.65          63.48          100.2           96.0          112.0
   0.08691              -21.81          32.64          54.51          45.56          4.484          7.183          69.63          63.48          100.2          95.99          112.0
    0.1304              -21.81          32.64          54.51          45.56          4.481          7.184          69.61          63.47          100.2          95.99          112.0
    0.1738              -21.82          32.64          54.51          45.56          4.478          7.184          69.59          63.46          100.2          95.99          111.9
    0.2173              -21.82          32.64          54.51          45.56          4.475          7.185          69.57          63.46          100.2          95.98          111.9
    0.2607              -21.83          32.64          54.51          45.56          4.472          7.185          69.55          63.45          100.2          95.98          111.9
    0.3042              -21.84          32.64           54.5          45.56          4.468          7.186          69.52          63.44          100.2          95.98          111.9
    0.3476              -21.85          32.64           54.5          45.55          4.464          7.186           69.5          63.43          100.3          95.97          111.9
    0.3911              -21.85          32.64           54.5          45.55           4.46          7.187          69.47          63.43          100.3          95.97          111.9
    0.4346              -21.86          32.64          54.49          45.55          4.455          7.187          69.44          63.42          100.3          95.96          111.8
     0.478              -21.87          32.64          54.49          45.55           4.45          7.188          69.41          63.41          100.3          95.96          111.8
    0.5215              -21.88          32.64          54.49          45.54          4.445          7.189          69.37           63.4          100.3          95.95          111.8
    0.5649              -21.89          32.64          54.48          45.54           4.44           7.19          69.33          63.38          100.3          95.94          111.8
    0.6084              -21.91          32.64          54.48          45.54          4.434           7.19          69.29          63.37          100.3          95.94          111.7
    0.6518              -21.92          32.64          54.48          45.53          4.427          7.191          69.25          63.36          100.4          95.93          111.7
    0.6953              -21.93          32.64          54.47          45.53           4.42          7.192           69.2          63.34          100.4          95.92          111.7
    0.7387              -21.95          32.63          54.46          45.53          4.412          7.193          69.15          63.32          100.4          95.91          111.6
    0.7822              -21.97          32.63          54.46          45.52          4.403          7.195          69.09          63.31          100.4           95.9          111.6
    0.8257              -21.99          32.63          54.45          45.52          4.394          7.196          69.03          63.29          100.4          95.89          111.6
    0.8691              -22.01          32.63          54.45          45.51          4.384          7.197          68.96          63.26          100.5          95.88          111.5
